REM DIRINDEX 1\2,1\3,1\4,1\5
REM DIRNAME folder01,folder02,folder03,folder04,folder05
TITLE ""
FILE "Round-02-042-043.mp3" MP3
  TRACK 01 AUDIO
    TITLE "0:"
    INDEX 01 00:00:00
  TRACK 02 AUDIO
    TITLE "2:cjc093_0517"
    INDEX 01 00:00:03
  TRACK 03 AUDIO
    TITLE "0:"
    INDEX 01 00:01:32
  TRACK 04 AUDIO
    TITLE "3:cjc093_0518"
    INDEX 01 00:01:62
  TRACK 05 AUDIO
    TITLE "0:"
    INDEX 01 00:03:17
  TRACK 06 AUDIO
    TITLE "4:cjc093_0519"
    INDEX 01 00:03:55
  TRACK 07 AUDIO
    TITLE "0:"
    INDEX 01 00:07:62
  TRACK 08 AUDIO
    TITLE "2:cjc093_0520"
    INDEX 01 00:09:00
  TRACK 09 AUDIO
    TITLE "0:"
    INDEX 01 00:10:04
  TRACK 10 AUDIO
    TITLE "3:cjc093_0521"
    INDEX 01 00:10:37
  TRACK 11 AUDIO
    TITLE "0:"
    INDEX 01 00:11:52
  TRACK 12 AUDIO
    TITLE "4:cjc093_0522"
    INDEX 01 00:11:74
  TRACK 13 AUDIO
    TITLE "0:"
    INDEX 01 00:16:18
  TRACK 14 AUDIO
    TITLE "2:cjc093_0523"
    INDEX 01 00:17:31
  TRACK 15 AUDIO
    TITLE "0:"
    INDEX 01 00:18:48
  TRACK 16 AUDIO
    TITLE "3:cjc093_0524"
    INDEX 01 00:19:15
  TRACK 17 AUDIO
    TITLE "0:"
    INDEX 01 00:20:30
  TRACK 18 AUDIO
    TITLE "4:cjc093_0525"
    INDEX 01 00:20:69
  TRACK 19 AUDIO
    TITLE "0:"
    INDEX 01 00:23:67
  TRACK 20 AUDIO
    TITLE "2:cjc093_0526"
    INDEX 01 00:25:11
  TRACK 21 AUDIO
    TITLE "0:"
    INDEX 01 00:26:17
  TRACK 22 AUDIO
    TITLE "3:cjc093_0527"
    INDEX 01 00:26:42
  TRACK 23 AUDIO
    TITLE "0:"
    INDEX 01 00:27:45
  TRACK 24 AUDIO
    TITLE "4:cjc093_0528"
    INDEX 01 00:27:65
  TRACK 25 AUDIO
    TITLE "0:"
    INDEX 01 00:31:18
  TRACK 26 AUDIO
    TITLE "2:cjc093_0529"
    INDEX 01 00:32:31
  TRACK 27 AUDIO
    TITLE "0:"
    INDEX 01 00:34:16
  TRACK 28 AUDIO
    TITLE "3:cjc093_0530"
    INDEX 01 00:34:67
  TRACK 29 AUDIO
    TITLE "0:"
    INDEX 01 00:37:01
  TRACK 30 AUDIO
    TITLE "4:cjc093_0531"
    INDEX 01 00:37:36
  TRACK 31 AUDIO
    TITLE "0:"
    INDEX 01 00:41:26
  TRACK 32 AUDIO
    TITLE "2:cjc093_0532"
    INDEX 01 00:42:39
  TRACK 33 AUDIO
    TITLE "0:"
    INDEX 01 00:43:56
  TRACK 34 AUDIO
    TITLE "3:cjc093_0533"
    INDEX 01 00:44:20
  TRACK 35 AUDIO
    TITLE "0:"
    INDEX 01 00:46:53
  TRACK 36 AUDIO
    TITLE "4:cjc093_0534"
    INDEX 01 00:47:21
  TRACK 37 AUDIO
    TITLE "0:"
    INDEX 01 00:51:58
  TRACK 38 AUDIO
    TITLE "2:cjc093_0535"
    INDEX 01 00:52:71
  TRACK 39 AUDIO
    TITLE "0:"
    INDEX 01 00:54:03
  TRACK 40 AUDIO
    TITLE "3:cjc093_0536"
    INDEX 01 00:54:44
  TRACK 41 AUDIO
    TITLE "0:"
    INDEX 01 00:55:61
  TRACK 42 AUDIO
    TITLE "4:cjc093_0537"
    INDEX 01 00:56:53
  TRACK 43 AUDIO
    TITLE "0:"
    INDEX 01 01:01:34
  TRACK 44 AUDIO
    TITLE "3:cjc093_0538"
    INDEX 01 01:02:20
  TRACK 45 AUDIO
    TITLE "0:"
    INDEX 01 01:04:41
  TRACK 46 AUDIO
    TITLE "4:cjc093_0539"
    INDEX 01 01:05:44
  TRACK 47 AUDIO
    TITLE "0:"
    INDEX 01 01:09:30
  TRACK 48 AUDIO
    TITLE "4:cjc093_0540"
    INDEX 01 01:10:10
  TRACK 49 AUDIO
    TITLE "0:"
    INDEX 01 01:14:10
  TRACK 50 AUDIO
    TITLE "2:cjc093_0541"
    INDEX 01 01:15:19
  TRACK 51 AUDIO
    TITLE "0:"
    INDEX 01 01:16:32
  TRACK 52 AUDIO
    TITLE "3:cjc093_0542"
    INDEX 01 01:16:50
  TRACK 53 AUDIO
    TITLE "0:"
    INDEX 01 01:17:67
  TRACK 54 AUDIO
    TITLE "4:cjc093_0543"
    INDEX 01 01:18:43
  TRACK 55 AUDIO
    TITLE "0:"
    INDEX 01 01:21:10
  TRACK 56 AUDIO
    TITLE "2:cjc093_0544"
    INDEX 01 01:22:27
  TRACK 57 AUDIO
    TITLE "0:"
    INDEX 01 01:23:54
  TRACK 58 AUDIO
    TITLE "3:cjc093_0545"
    INDEX 01 01:24:02
  TRACK 59 AUDIO
    TITLE "0:"
    INDEX 01 01:25:02
  TRACK 60 AUDIO
    TITLE "4:cjc093_0546"
    INDEX 01 01:25:21
  TRACK 61 AUDIO
    TITLE "0:"
    INDEX 01 01:28:59
